<svg xmlns="http://www.w3.org/2000/svg" xmlns:xlink="http://www.w3.org/1999/xlink" width="800" height="300" viewBox="0 0 800 300">
  <defs>
    <clipPath id="clip-path">
      <rect id="Rectangle_1" data-name="Rectangle 1" width="678.313" height="182.651" fill="#fff"/>
    </clipPath>
    <clipPath id="clip-Antoine_Comer_Logo_Wit">
      <rect width="800" height="300"/>
    </clipPath>
  </defs>
  <g id="Antoine_Comer_Logo_Wit" data-name="Antoine Comer Logo – Wit" clip-path="url(#clip-Antoine_Comer_Logo_Wit)">
    <g id="Group_2" data-name="Group 2" transform="translate(55.969 58.674)">
      <g id="Group_1" data-name="Group 1" transform="translate(0 0)" clip-path="url(#clip-path)">
        <path id="Path_1" data-name="Path 1" d="M93.028,87.09c-.092-12.245-.329-24.489-.549-36.732-.085-4.7-.171-9.4-.51-14.089-.135-1.868-.177-3.917-1.911-6.1-.106,2.032-.175,3.473-.256,4.913-.077,1.4-.127,2.795-.26,4.185a7.7,7.7,0,0,0-.039,3.515c.449,1.306.171,1.552-1.6,3.091-.173-5.7.264-11.317-1.009-16.843a4.131,4.131,0,0,0-4.139,3.074,13.7,13.7,0,0,0-1.05,3.79c-.451,7.494-.869,14.992-1.113,22.494-.127,3.9.258,7.821.181,11.729-.158,8.149-.514,16.292-.693,24.439-.064,2.91.258,5.828.179,8.736-.039,1.445.329,3.033-.686,4.734-.532-1.067-.921-1.8-1.273-2.556-3.253-6.955-6.406-13.96-9.774-20.858-3-6.15-6.263-12.17-9.355-18.276-1.26-2.49-2.373-5.054-3.465-7.4-1.308-.337-1.645.32-1.911,1.077v1.768l-.643.119c-.187-.574-.374-1.15-.559-1.724-.95-1.225-1.9-2.452-2.989-3.864-1.568,1.8-2.9,1.849-4.287.293a1.747,1.747,0,0,0-1.52-.387,5.59,5.59,0,0,0-2.758,1.431,7.784,7.784,0,0,0-1,3.407,13.777,13.777,0,0,0,.162,2.781c-.462.2-.921.4-1.379.6a10.419,10.419,0,0,1,1.514,5.137c.713-.121,1.26.41,1.5,1.566.4,1.934.759,3.877,1.057,5.828,1.583,10.423,3.087,20.858,4.732,31.27.869,5.485,1.993,10.928,2.956,16.4.928,5.273,1.77,10.562,2.7,15.835a36.091,36.091,0,0,0,1.371,6.015,26.665,26.665,0,0,0,2.565,4.359,2.066,2.066,0,0,0,.863-.281c1.265-1.054,1.489-2.766,2.511-4.077,1.03-1.327.711-3.7.975-5.57l1.092,5.433,2.947-.322a10.712,10.712,0,0,0,.7-3.23c-.379-3.921-.853-7.845-1.518-11.727-1.471-8.621-3.1-17.216-4.617-25.829-.329-1.876-.462-3.786-.688-5.682,2.255,3.492,5.1,6.562,5.9,10.712.077.395.481.732.749,1.082a5.408,5.408,0,0,1,.772.971c.963,2.251,1.909,4.511,2.81,6.789.693,1.755,1.849,3.216,2.355,5.171a11.905,11.905,0,0,0,3.767,6.1c1.456,1.144,1.8,2.6,2.708,3.844a6.421,6.421,0,0,1,1.649.127c2.1.743,2.325.666,3.049-1.2a3.64,3.64,0,0,1,.884-1.612,6.01,6.01,0,0,1,6-1.171,18.407,18.407,0,0,0,1.054-3.253c.622-4.842,1.439-9.686,1.614-14.551.3-8.484.287-16.983.222-25.475M88.036,47.255c2.275-.173,1.862,1.466,1.9,2.315.044.867-.649,1.77-1.038,2.706,1.745,1.262.992,3.28,1.129,5.065.077.975-1.346,1.951,0,2.981a3.226,3.226,0,0,1-.555,1.129c-.495.693-1.308,1.325.324,1.708.231.056.42,1.425.2,2.028a31.277,31.277,0,0,1-2.068,3.821c-.162-7.654-.532-14.651.11-21.754m.366,75.062c-.668-.574-1.36-.913-1.333-1.183.293-3.082.7-6.154,1.069-9.229.087.006.175.01.264.013Zm-.308-16.745v-2.286l.169-.008v2.286l-.169.008m.21-8.844q-.182-1.326-.364-2.654l.57.017q.1,1.294.195,2.585l-.4.052m-.179-6.148V84.792a5.623,5.623,0,0,1,0,5.788m.395-7.916c-.146-.065-.424-.146-.418-.193.048-.372.15-.736.235-1.1l.6.208-.422,1.086m.191-2.583-.616-.042V69.369c.5.5.63,2.19.485,5.148l1.839,1.021C88.1,76.5,89.2,78.556,88.71,80.081" transform="translate(35.952 26.884)" fill="#fff"/>
        <path id="Path_2" data-name="Path 2" d="M309.773,124.658c-1.339.822-2.65,1.695-4.025,2.45a28.928,28.928,0,0,1-2.945,1.2c0-3.272-.212-6.08.044-8.846.526-5.726,1.333-11.427,1.963-17.145.418-3.8.628-7.627,1.107-11.419.926-7.317,1.98-14.616,2.972-21.924a4.345,4.345,0,0,0-.243-.932c-1.2,3.351-2.188,6.365-3.359,9.306-4.01,10.059-7.244,20.425-11.824,30.259-1.011,2.171-1.961,4.416-4.158,5.809-1.1-.335-2.174-.738-3.286-.978-.815-.177-1.758-.3-2.226.689a1.74,1.74,0,0,1-2.059,1.161c-1.086-.329-1.221-1.381-1.367-2.475a44.908,44.908,0,0,1,.295-11.009,56.475,56.475,0,0,0,.466-11.777c-.214-2.186.237-4.428.241-6.645a58.1,58.1,0,0,0-.684-9.869,9.36,9.36,0,0,0-.507,1.288q-2.328,9.921-4.624,19.851c-1.367,5.938-2.648,11.9-4.075,17.823a44.42,44.42,0,0,1-5.364,13.06,3.255,3.255,0,0,1-2.756,1.776c.6-1.674,1.138-3.188,1.862-5.212-2.881,1.9-2.434,5.838-5.809,6.833a12.614,12.614,0,0,1-.632-8.821c1.549-5.439,3.307-10.826,4.642-16.317,1.5-6.165,2.646-12.417,3.908-18.638a218.962,218.962,0,0,1,6.373-23.33q3.114-9.7,6.3-19.366c.78-2.348,1.666-4.665,2.614-6.949a3.248,3.248,0,0,1,1.443-1.745,5.2,5.2,0,0,1,2.758-.094c.364.071.792.876.826,1.371.108,1.525.039,3.064.039,4.732,2.057-.148,1.518-2.829,3.386-3.573a21.415,21.415,0,0,1,.164,3.147,105.242,105.242,0,0,0,.2,17.228c.5,7.024.643,14.075.942,21.117a3.146,3.146,0,0,0,.48,1.755c.549-1.288,1.142-2.56,1.643-3.865,2.81-7.353,5.435-14.784,8.453-22.049,1.872-4.5,4.308-8.779,6.543-13.129a14.771,14.771,0,0,1,1.666-2.29c.867-1.092,1.718-2.176,3.424-1.418.354.158.946-.22,1.728-.433.56,1.377,1.082,2.662,1.6,3.935,2.365-1.154,3.107-.844,3.309,1.961.478,6.579,1.1,13.156.131,19.763-.745,5.1-1.279,10.233-1.9,15.35-.7,5.8-1.41,11.606-2.069,17.415-.559,4.946-1,9.905-1.587,14.847-.6,5.106-1.344,10.2-1.959,15.3a4.12,4.12,0,0,1-2.136,3.078l-2.167-.9c.065-.433.139-.919.2-1.419.366-.637.741-1.26,1.156-1.943-1.437.158-1.369,1.034-1.125,2m-8.5-47.976c-2.107,4.21-5.219,12.629-5.229,14.449a10.52,10.52,0,0,0,.888-1.45c1.46-3.76,2.912-7.523,4.3-11.309a5.039,5.039,0,0,0-.011-1.741c1.764-.79,1.4-2.546,1.857-3.933a5.919,5.919,0,0,0-1.8,3.985m-36.536,44.024c.318-.044.593-.023.62-.1a86.791,86.791,0,0,0,3.134-8.592c1.194-4.6,2.036-9.3,3.016-13.954.3-1.416.618-2.831.817-4.262.187-1.329.846-2.483.9-3.923.081-2.059.924-4.089,1.425-6.134.121-.5,0-1.238.3-1.479,1.333-1.075.634-2.221.258-3.4a54.868,54.868,0,0,0-1.681,6.367c-1.161,5.183-2.35,10.362-3.49,15.55-1.414,6.435-2.712,12.9-5.283,19.015a2.6,2.6,0,0,0-.014.911M275.273,76.82c.291.073.58.144.871.216l5.079-18.524c-.233-.064-.464-.129-.7-.191q-2.626,9.248-5.252,18.5m35.118-23.4-.655-.287c-2.19,6.184-4.751,12.234-6.764,18.484l.643.237q3.389-9.216,6.776-18.434m-22.426,1.31.208.075V52.095l-.208,0Zm5.691,43.391c-1.315.455-1.495.978-.824,2.215.326-.872.518-1.391.824-2.215m-2.348,4.99c.761-.485,1.554-.969.431-1.938-.171.772-.3,1.354-.431,1.938M310.6,121.474l.693.052c.046-.5.092-1.007.141-1.51-.148-.029-.3-.058-.447-.089l-.387,1.547m-22.49-74.124-.272.012c.033.532.064,1.061.1,1.593l.175-.01Z" transform="translate(239.152 30.127)" fill="#fff"/>
        <path id="Path_3" data-name="Path 3" d="M382.9,59.957c1.271,2.768.324,5.37-.955,7.731s-2.508,4.879-4.915,6.437c-1.308.849-2.571,1.77-3.9,2.589a40.36,40.36,0,0,1-13.195,5.246c-3.658.743-7.284,1.629-11.069,2.485,1.391,1.741,2.687,3.538,4.166,5.169,2.246,2.481,4.58,4.886,6.949,7.248a66.634,66.634,0,0,0,12.1,9.5c3.449,2.128,7.024,4.112,9.738,7.226.967,1.111,1.81,2.33,2.706,3.5q.777,1.02,1.537,2.057c.352.48.691.969,1.194,1.678l-2.456-.349c.379,1.036.684,1.864,1.088,2.97a5.39,5.39,0,0,1-1.9-.316c-1.429-.95-3.11-.93-4.655-1.41-.886-.273-1.73-.674-2.6-1-2.263-.863-3.964-2.924-6.558-3.085-.356-1.554-1.968-1.4-2.949-2.1a29.144,29.144,0,0,0-3.108-1.4c-.6-.324-1-1-1.585-1.364a87.24,87.24,0,0,1-19.291-16.822c-1.429-1.614-2.361-3.883-4.742-4.549-.156-1.121-.905-1.72-2.105-2.3-.948,2.754-1.884,5.426-2.787,8.107a172.5,172.5,0,0,1-6.042,16.442c-1.287,2.837-2.392,5.757-3.6,8.63-.7,1.672-1.668,2.987-4.025,2.463.085-.389.04-.969.31-1.271a7.259,7.259,0,0,0,1.41-2.906c.079-.464.526-.859.641-1.325a54.171,54.171,0,0,0,1.348-6.935c-.637,1.672-1.281,3.34-1.913,5.013s-1.177,3.4-1.914,5.031c-.487,1.079-.959,2.365-2.639,2.107-.231-.035-.691.378-.782.664-.356,1.127-1.129.786-1.745.709a28.686,28.686,0,0,1-.339-3.671,22.1,22.1,0,0,1,.551-4.345c.422-1.785,1.038-3.526,1.618-5.269.973-2.916,1.891-5.845,3.055-8.705,1.29-3.17,2.225-6.485,3.33-9.73,1.165-3.421,2.394-6.82,3.517-10.254.93-2.839,1.826-5.693,2.594-8.578.9-3.384,1.695-6.8,2.45-10.219.335-1.512.466-3.07.688-4.609a24.724,24.724,0,0,0,.57-6.207,8.842,8.842,0,0,1,.491-2.477q-1.427-.4-2.783-.774c.279-1.208.441-2.2.755-3.151.212-.643-.071-1.681,1.123-1.731.1,0,.262-.221.272-.349.193-2.766,2.51-3.058,4.416-3.59A42.388,42.388,0,0,1,350,40.877a54.481,54.481,0,0,1,18.355,3.53c3.654,1.454,7.155,3.211,9.615,6.389a75.214,75.214,0,0,1,4.634,6.989A5.952,5.952,0,0,1,382.947,60c-.533-.291-1.063-.576-2.119-1.146.628,1.181,1.021,1.922,1.412,2.667-.064.651-.123,1.3-.2,2.113,1.227-.828.26-1.431.144-2.057q.355-.809.711-1.616m-4.314,8.236c-1.173-.487-1.83.5-2.321,1.111a18.951,18.951,0,0,1-4.545,3.885,19.373,19.373,0,0,0-1.51,1.223c.1.158.191.316.287.472,1.117-.611,2.25-1.194,3.344-1.843.666-.4,1.225-1.171,1.914-1.287,1.67-.281,2.425-1.444,3.124-2.712.094-.173-.227-.576-.377-.89,1.527-.716,1.483-1.988,1.391-3.813-.688.946-1.061,1.5-1.481,2.026a1.211,1.211,0,0,0,.175,1.828m-37.85,6.485c.9-.085,1.427-.1,1.945-.189,2.845-.462,5.685-.951,8.532-1.412a65.385,65.385,0,0,0,15.527-4.241,39.389,39.389,0,0,0,5.614-3.3,2.188,2.188,0,0,0,1.057-2.178,9.53,9.53,0,0,0-3.091-6.319c-3.846-3.261-8.128-5.522-13.424-5.842-4.129-.25-8.185.083-12.513.089-.127,7.995-1.651,15.61-3.648,23.4m-1.708-4.434-1.362-.9-.842,2.764c.818-.7,1.429-1.213,2.2-1.868m21.192,8.765c-1.03.179-1.826.316-2.623.453,1.04,1.111,1.83.936,2.623-.453m-27.582,8.476-.491-.015q-.428,1.476-.851,2.954l.437.121Zm-3.239,8.332.349.123q.428-1.17.853-2.342c-.116-.04-.231-.079-.345-.119q-.43,1.17-.857,2.338m-2.825,9.719-.387-.308q-.318.936-.638,1.87l.275.092q.376-.826.749-1.654" transform="translate(291.059 37.811)" fill="#fff"/>
        <path id="Path_4" data-name="Path 4" d="M315.291,72.287c2.519-.281,4.561-.514,6.606-.734a25.445,25.445,0,0,1,5.015-.449c2.735.264,5.435.9,8.141,1.416.289.054.518.4.784.6.58.437,1.163.867,1.731,1.29-.664.368-1.624.9-2.583,1.439l.15.451,2.77-.7a1.627,1.627,0,0,1-.774,1.907c-1.5,1.2-2.978,2.417-4.992,2.773-2.954.52-5.826,1.391-8.717,2.194-3.28.909-6.783,1.023-10.19,1.464-.826.108-1.66.143-2.854.241-1.949,6.173-3.921,12.4-5.878,18.638a6.661,6.661,0,0,0-.256,1.485c-.144,1.955.366,2.612,2.271,2.885a16.212,16.212,0,0,0,7.238-.562,87.9,87.9,0,0,0,14.069-5.456,12.965,12.965,0,0,1,3.107-.948c1.258-.283,1.824.628,2.225,1.572a12.817,12.817,0,0,1,.495,2.094c1.24-.6,2.384-1.142,3.837-1.837a7.419,7.419,0,0,1-.044,2.255,1.461,1.461,0,0,0,.146,1.473,2.276,2.276,0,0,1-.127,2.02,9.016,9.016,0,0,1-2.885,2.727,107.236,107.236,0,0,1-10.2,4.328c-5.583,2-11.219,3.91-17.161,4.6a18.649,18.649,0,0,1-10.11-1.314c-2.49-1.163-4.541-3.016-4.578-6.327-.044-3.833-.865-7.683.108-11.481,1.319-5.158,2.373-10.387,4.682-15.267,1.24-2.621,1.968-5.481,3.008-8.2,1.31-3.436,2.706-6.839,4.058-10.26,1.427-3.607,2.837-7.222,4.274-10.828.247-.618.582-1.2.878-1.808-2.277-.574-2.251-.574-2.228-2.868.017-1.853-.06-3.706-.037-5.558a2.127,2.127,0,0,1,.424-1.117,16.037,16.037,0,0,1,7.777-6.117c5.073-1.824,10.319-2.232,15.61-2.517,1.007-.054,2.018-.046,3.026-.11,2.279-.141,4.333.171,5.8,2.238.335.472,1.179.555,1.731.905a5.282,5.282,0,0,1,1.726,1.366c1.429,2.292.067,4.651-2.8,4.925-1,.1-2.026-.089-3.018.033-3.209.387-6.3,1.6-9.626,1.219-1.512-.171-2.257.7-2.854,2.169-2.467,6.065-5.16,12.039-7.717,18.068-.716,1.687-1.254,3.451-2.059,5.7m-3.525-3.3c2.063-1.926,1.876-4.414,2.791-6.439a13.1,13.1,0,0,0-2.791,6.439m9.408-20.025c-.146-.121-.295-.241-.441-.362-1.778.7-1.522,2.5-2.111,3.837.162.091.322.183.483.273l2.068-3.748m-20.747,49.9.649.206c.133-1.606,1.957-2.708.8-4.711q-.725,2.253-1.452,4.5m1.1,4.461h-1.731c-.206,1.377-.206,1.377,1.227,1.62.146-.468.293-.938.5-1.62M315.241,59.88c.164.05.327.1.491.152.254-.6,1.26-.99.287-2.209-.318.84-.549,1.448-.778,2.057M304.633,89.116l-.653-.306-.861,2.315.352.135,1.161-2.144m12.542-32.436q.5-.875,1-1.749c-1.111.445-1.111.445-1,1.749" transform="translate(270.542 33.003)" fill="#fff"/>
        <path id="Path_5" data-name="Path 5" d="M213.5,37.813l2.685-.067c.023.173.048.347.073.52l-4.584.982c.042.214.083.426.123.639l6.419-.948a24.268,24.268,0,0,1-7.163,2.71c-6.015.923-12.007,1.913-18.1,2.357-5.229.383-10.408,1.446-15.656,2.215-2.34,10.427-4.653,20.727-7.028,31.315,1.554.01,3.033.1,4.5.015a101.652,101.652,0,0,1,17.717.794c1.635.193,2.783.709,3.411,2.436.314.861,1.4,1.441,2.074,2.084l-3.332,1.574a5.215,5.215,0,0,0,1.133.32c.819-.067,1.949-.453,1.907.824-.017.543-1.013,1.41-1.664,1.514-2.876.468-5.782.826-8.692,1.009-3.844.243-7.7.314-11.552.4-2.781.064-5.564.039-8.59.054-1.88,6.319-3.74,12.583-5.738,19.3,1.175-.2,2.047-.3,2.895-.5a49.574,49.574,0,0,1,15.416-1.481c1.9.152,3.448.418,4.241,2.535.26.691,1.523,1.009,2.3,1.481-.8.455-2.242-.455-2.827,1.013.749,1.641,2.29.077,3.33.888.408,1.077-.435,1.525-1.223,1.676-8.623,1.649-16.895,4.545-25.309,6.939a19.251,19.251,0,0,1-4.428.218,34.693,34.693,0,0,0-4.183.2c-2.307.374-2.3.453-5.27-.557.173-2.388-.037-4.984.6-7.353,2.226-8.243,4.788-16.4,7.138-24.608,1.163-4.06,2.1-8.185,3.213-12.263,2.113-7.768,4.283-15.522,6.406-23.287.245-.9.335-1.832.51-2.829-1.277-.455-2.465-.88-3.927-1.4,1.4-2.219.707-4.57,1.891-6.737a11.39,11.39,0,0,1,5.988-5.244c5.393-2.234,11.107-2.818,16.87-3.07,4.416-.195,8.835-.358,13.251-.528a42.572,42.572,0,0,1,16.658,2.488,7.014,7.014,0,0,1,1.248.628,3.658,3.658,0,0,1,.6.624c-.872,1.184-2.644-.455-3.322,1.115l-2.275-.487-.04.208,2.307.283M168.832,68.474l-.63-.094c-.807,1.764-1.485,3.552-.584,5.63Zm3.347-14.722-.314-.054-.191,1.548.214.033c.1-.508.195-1.019.291-1.527" transform="translate(135.549 30.479)" fill="#fff"/>
        <path id="Path_6" data-name="Path 6" d="M74.085,66.937q-1.459,1.326-2.912,2.654c-.79.243-1.855.193-1.6,1.97L71.1,69.5l2.105-.123c-1.262,1.1-2.4,2.04-3.471,3.053-1.217,1.156-2.375,2.373-3.544,3.577-1.672,1.722-3.259,3.534-5.027,5.152a3.048,3.048,0,0,0-1.028,3.014c.663,3.985,1.36,7.964,2.02,11.949.842,5.081,1.593,10.179,2.51,15.248.838,4.624,1.924,9.2,2.756,13.827,1.443,8.024,2.768,16.07,4.16,24.1.32,1.841.767,3.661,1.048,5.508a13.208,13.208,0,0,1-.065,2.431l-.568.127a19.123,19.123,0,0,1-1.356-3.671c-.776-4.986-1.233-10.032-3.218-14.753.187-3.819-1.132-7.4-1.8-11.078-.628-3.492-1.427-6.953-2.149-10.429l-.649-.112c-.235.7-.747,1.445-.657,2.1.381,2.758.965,5.487,1.431,8.234.343,2.017.547,4.058.944,6.061.7,3.546,1.45,7.084,2.275,10.6.79,3.37,1.768,6.7,2.54,10.075.686,3,1.14,6.05,1.814,9.052.718,3.2,1.6,6.356,2.346,9.545a10.9,10.9,0,0,1-.065,2.363c-.655-.69-1.159-.992-1.317-1.419-2.311-6.267-4.636-12.529-6.826-18.836-1.2-3.453-2.178-6.987-3.213-10.5-1.24-4.218-2.529-8.424-3.621-12.683-.859-3.353-1.46-6.772-2.155-10.165-.828-4.039-1.7-8.068-2.431-12.124-.869-4.8-1.672-9.615-2.371-14.441a30.66,30.66,0,0,0-1-4.938c-3.049,2.463-5.751,4.686-8.5,6.853-2.036,1.606-4.206,3.047-6.179,4.724a79.578,79.578,0,0,0-6.026,5.709,4.855,4.855,0,0,0-.984,2.552c-.94,6.523-1.728,13.068-2.716,19.583-1.562,10.3-3.168,20.591-4.915,30.858a81.1,81.1,0,0,1-2.45,9.251c-.164.555-.859.953-1.427,1.547-.069-1.691-.22-3.141-.16-4.58.065-1.626,1.084-3.072,1.027-4.755-.01-.241.532-.526.495-.736-.056-.331-.385-.616-.805-1.215-1.676,5.114-1.354,10.539-4.112,15.119-3.293-1.99-3.871-4.815-3.151-8.565.834-4.335.919-8.811,1.408-13.216.636-5.709,1.373-11.4,2.018-17.111.718-6.356,1.383-12.717,2.117-19.5-4.567,2.425-8.867,4.707-13.214,7.016-.874-1.639-1.643-3.024-2.357-4.436-.973-1.92-.774-3.255.865-4.561,1.545-1.233,3.2-2.33,4.844-3.434,3.211-2.159,6.412-4.335,9.688-6.39a4.656,4.656,0,0,0,2.305-3.605c1.113-8.5,2.186-17.007,3.426-25.489.83-5.682,1.783-11.354,2.92-16.981,1.433-7.1,2.974-14.191,4.726-21.221C30.5,33.121,32,28.65,33.5,24.2c1.418-4.193,3.012-8.326,4.617-12.452.636-1.635,1.346-3.136,3.473-3.634,1.793-.422,2.477-.456,3.085,1.258.27.761.456,1.548.8,2.741.653-.975,1.067-1.591,1.481-2.205l.42.141c-.141.589-.283,1.177-.447,1.851,1.6.017,1.394-1.271,1.764-2.142a18.906,18.906,0,0,1,1.868,8.135c.146,3.058.782,6.094,1.179,9.143.449,3.453.849,6.914,1.314,10.368.686,5.11,1.362,10.219,2.128,15.317.961,6.39,2.007,12.767,3.028,19.15.117.738.308,1.466.547,2.583,1.766-1.073,3.347-2.186,5.056-3.041,3.355-1.678,6.633-3.565,10.36-4.372ZM50.209,47.5c.193-.526,1.146-.74.514-1.633-.343-.483-.664-1.481-.418-1.8,1.354-1.731.077-2.165-1.423-3.014.514,2.379.951,4.391,1.389,6.4a34.924,34.924,0,0,0,1.909,11.465,6.754,6.754,0,0,0-.231,1.851c.811,5.169,1.679,10.327,2.531,15.487,1.36-.177,1.928-.508,1.728-1.689-.844-4.969-1.618-9.95-2.415-14.928-.183-1.15-.888-.978-1.643-.68.252-1,.555-1.984.738-2.993.146-.792-1.356-1.456-.075-2.521.32-.268-.551-1.835-.7-2.831a32.757,32.757,0,0,1-.195-3.355c-.8.114-1.26.179-1.7.233M41.548,36.092c-3.162,8.994-11.013,51.753-10.56,57.163,5.443-4.089,10.918-8.236,16.438-12.319A2.621,2.621,0,0,0,48.664,78.3c-.428-2.683-.988-5.347-1.441-8.026-1.042-6.182-2.1-12.365-3.062-18.561-.7-4.557-1.246-9.137-1.9-13.7a10.337,10.337,0,0,0-.711-1.916m18.131,70.245c1.038-.67,1.651-1.092,1.369-2.33-.638-2.82-1.009-5.7-1.479-8.559-.287-1.747-.146-3.721-.944-5.191-.932-1.722-.21-3.519-.872-5.237-1.277-.144-1.853.239-1.6,1.55.3,1.533.614,3.068.807,4.615.125.988-.258,2.128.108,2.974a22.749,22.749,0,0,1,1.35,6.545,55.98,55.98,0,0,0,1.263,5.634M48.231,16.027l-.472-.158a6.008,6.008,0,0,0-.522.965c-1.267,3.763-.166,7.546-.015,11.313a60.824,60.824,0,0,0,.757,6.283c.148,1.019.437,2.018.759,3.449,1.568-3.159,1.423-6.731.349-7.673.06-1.616.171-2.872.137-4.124-.052-1.886-1.4-3.63-.582-5.645a1.339,1.339,0,0,0-.4-1.242c-.9-.478-.57-.955-.283-1.6a6.373,6.373,0,0,0,.272-1.568M26.377,97.069A35.354,35.354,0,0,0,28.222,84.1c-1.125,4.239-2.088,8.505-1.845,12.966M61.8,117.113a13.472,13.472,0,0,0,1.1-2.673,4.142,4.142,0,0,0-.283-2.213,7.989,7.989,0,0,0-1.529-1.728,4.12,4.12,0,0,0,.676-1.448c.013-.36-.495-.743-.772-1.117a4.973,4.973,0,0,0-.834.865,1.268,1.268,0,0,0-.015.826c.489,2.259,1,4.515,1.662,7.488m-38.643,7.775a6.1,6.1,0,0,0-.761,5.462c.266-1.9.512-3.684.761-5.462m-2.1,11.076c.239.044.48.089.718.135q.274-1.91.551-3.819l-.5-.1-.768,3.783m10.6-74.8.6.05c-.052-1.31.8-2.575-.168-3.944q-.214,1.947-.429,3.894M18.931,154.83l-.6-.033q-.159,1.554-.32,3.109l.406.056q.257-1.566.516-3.132M38.015,35.9c-.245-.127-.487-.256-.73-.385q-.37,1.147-.74,2.29l.547.2q.459-1.052.923-2.1M19.262,150.683l.489.023q.04-1.144.083-2.286c-.089-.006-.177-.012-.266-.019l-.306,2.282M39.93,26.538l.493.231c.154-.508.306-1.015.458-1.523-.114-.039-.225-.077-.339-.114q-.306.7-.612,1.406m-3.679,16.07-.663-.222q-.121.7-.239,1.4c.117.033.235.065.354.1.181-.426.364-.853.547-1.279" transform="translate(0 7.288)" fill="#fff"/>
        <path id="Path_7" data-name="Path 7" d="M143.928,50.157c1.4-1.387,1.4-3.34,3.405-4.218.5,1.972,1.027,3.8,1.425,5.653.984,4.592,2.086,9.166,2.81,13.8.638,4.072.836,8.211,1.206,12.322.393,4.38.757,8.763,1.158,13.143.021.237.268.455.495.822a5.914,5.914,0,0,0,.732-1.206c1.99-6.758,4.031-13.5,5.9-20.29a186.954,186.954,0,0,1,8.409-24.739c2.28-5.266,4.813-10.422,7.309-15.587a10.448,10.448,0,0,1,2.253-3.228,15.574,15.574,0,0,1,3.424-1.8,5.443,5.443,0,0,1,.7,4.28c-.555,3.055-.944,6.132-2.18,9.008-1.188,2.766-2.458,5.5-3.679,8.251-.1.225-.106.491.239,1.025a9.361,9.361,0,0,0,1.834-2.161c.82-1.934,1.31-4,2.1-5.953a31.668,31.668,0,0,1,2.748-5.7,7.975,7.975,0,0,0,1.238-3.954c.033-.385.412-.742.813-1.406a8.645,8.645,0,0,1,.828,5.913,46.009,46.009,0,0,1-1.439,4.576c-2.631,6.824-5.487,13.567-7.924,20.46-2.194,6.2-3.977,12.554-5.886,18.857-2.452,8.093-4.827,16.209-7.271,24.3-2.011,6.662-4.079,13.307-6.1,19.965-.485,1.595-.89,3.214-1.383,5.011l-2.594-.686c.079-2.138.152-4.124.225-6.109-.112-.025-.222-.05-.331-.077a31.155,31.155,0,0,1-2.061,5.726c-.926,1.579-2.517,2.768-4.05,4.372-1.069-2.66-2.055-4.979-2.186-7.617-.135-2.714-.343-5.437-.74-8.122-.942-6.383-2.215-12.719-2.966-19.121-.516-4.412-1.315-8.835-.951-13.334a5.455,5.455,0,0,0-.807-3.051c-.553,4.145-.975,8.311-1.693,12.426-.743,4.255-1.687,8.482-2.7,12.683s-2.084,8.374-3.38,12.482-2.115,8.411-4.713,12.172a4.031,4.031,0,0,1-.871-4.341q1.725-5.807,3.265-11.668c1.275-4.888,2.71-9.757,3.611-14.718,1.065-5.849,1.593-11.8,2.442-17.688.223-1.547.817-3.039,1.163-4.574.175-.774.135-1.595.27-2.382.345-2,.778-3.985,1.082-5.992a34.4,34.4,0,0,0,.146-3.467c-1.493.967-1.377,2.2-1.575,3.157-.716,3.449-1.331,6.922-1.887,10.4-.547,3.413-.98,6.845-1.452,10.269-.351,2.552-.578,5.123-1.054,7.65a52.322,52.322,0,0,1-1.728,6.783c-.767,2.317-.869,4.732-1.389,7.072-.485,2.178-1.412,4.255-2.04,6.406-1.15,3.944-2.319,7.889-3.286,11.88-.48,1.98-2.028,2.623-3.211,3.623a15.365,15.365,0,0,1-1.731-3.2,19.632,19.632,0,0,1-.838-5.651,39.047,39.047,0,0,1,1.918-9.909c1.238-3.931,1.993-8.016,2.92-12.041a94.662,94.662,0,0,0,2.121-9.915c.5-4.237,1.695-8.353,1.8-12.679a38.755,38.755,0,0,1,1.641-8.863c1.448-5.445,2.974-10.878,4.75-16.223.822-2.469,2.334-4.7,3.488-7.068.763-1.566,2.483-1.086,3.7-1.656.566-.268,1.747.811,1.891,2.034.156,1.3.428,2.583.649,3.873m3.342,9.118c-.1.809-1.543,1.585.117,2.65-.046-1.036-.081-1.843-.117-2.652q-.474-1.372-.95-2.743c-.227,1.152-1.03,2.612.95,2.745M148.482,83.5c.468-1.054.934-2.107,1.443-3.257-.352-.143-.871-.354-1.493-.609.023,1.439.042,2.65.062,3.862.146,1.581.293,3.162.474,5.115,1.527-1.916,1.9-3.577,1.233-5.6-.689.2-1.215.358-1.718.487m29.073-33.915c-1.6.233-2.028,1.265-2.394,2.311-1.2,3.442-2.232,6.953-3.605,10.325-1.36,3.338-1.961,6.878-3.124,10.271A120.9,120.9,0,0,0,163.845,88.1c-.474,2.39-.751,4.907-2.132,7.057a3.226,3.226,0,0,0-.2.819c-1.423,4.925-2.77,9.873-4.324,14.755a7.825,7.825,0,0,0-.112,4.665c.616-1.583,1.352-2.664,1.408-3.779.144-2.881,1.471-5.374,2.28-8.028,1.5-4.907,3.6-9.682,4.555-14.684,1.075-5.645,3.338-10.876,4.7-16.4.986-3.981,2.275-7.9,3.65-11.768,1.117-3.145,1.462-6.573,3.415-9.426a6.092,6.092,0,0,0,.462-1.737M147.771,72.618c.462-.491,1.333-.992,1.331-1.489a28.314,28.314,0,0,0-.58-5.133c-.048-.252-.967-.339-1.762-.591.381,2.721.7,5,1.011,7.213m3.051,19.119-1.737-.173c.235,1.924.455,3.723.738,6.028.395-2.313.691-4.048,1-5.855m-1.2-18.474c-.72.894-1.225,1.522-1.943,2.411,2.257.079,2.092-1.05,1.943-2.411" transform="translate(110.237 22.99)" fill="#fff"/>
        <path id="Path_8" data-name="Path 8" d="M77.482,65.533c-.329-4.53-.587-8.9-.98-13.253-.53-5.872-1.235-11.731-1.731-17.605-.385-4.557-1.429-9.062-1.04-13.68.164-1.951.05-4.012,2.858-4.149.252-.01.481-.508.824-.9a8.291,8.291,0,0,1,2.149,6.685,10.272,10.272,0,0,0,.364,2.683c.495,2.654,1.015,5.3,1.545,8.053l1.381-.46c-.239-2.3-.439-4.58-.726-6.853a15.618,15.618,0,0,1,1.03-7.75,43.139,43.139,0,0,1,1.238,4.378c.539,3.234.878,6.5,1.425,9.738a64.771,64.771,0,0,1,1.4,11.569c-.029,2.666.691,5.341,1.079,8.01.225,1.56.453,3.12.707,4.869.992-.6,1.978-1.121,2.872-1.764,3.825-2.752,7.509-5.718,11.458-8.278,6.467-4.189,12.993-8.32,19.713-12.086a43.837,43.837,0,0,1,10.079-3.669c2.122-.568,4.522-.065,6.679-.56a40.223,40.223,0,0,0,6.179-2.473c.135.175.27.352.4.533-.907,1.1-1.81,2.2-2.721,3.292a22.789,22.789,0,0,1-2.448,2.862c-2.949,2.519-5.589,5.393-9.154,7.205-1.679.853-2.833,2.691-4.436,3.767a24.062,24.062,0,0,1-6.134,3.245c-1.911.589-2.96,2-4.385,3.06-.185.139-.314.478-.487.491-2.667.221-3.509,2.908-5.489,4.05-.4.229-.657.726-1.065.915-1.512.693-3.062,1.31-4.6,1.955.017,1.941-1.541,2.373-2.872,3.1a41.243,41.243,0,0,0-4.222,2.685q-3.712,2.681-7.307,5.528a2.318,2.318,0,0,0-.7,1.626c.006,1.679.125,3.367.3,5.038.52,5.033,1.138,10.058,1.618,15.094.237,2.508.175,5.042.383,7.554.557,6.735,1.192,13.465,1.776,20.2.048.557-.087,1.127-.081,1.691.025,2.188-.48,4.335,1.152,6.419.776.992.967,2.675,1.627,3.985.2.391-.039,1.077-.223,1.574-.753,2.026-1.562,4.029-2.4,6.173l-2.367.139c-.012-1.175-.021-2.275-.037-3.742-1.839,1.523-2.1,3.53-2.968,5.192-.824,1.583-1.791,3.093-2.766,4.755a18.259,18.259,0,0,1-4.287-7.683c-.431-1.679-.11-3.546-.168-5.325-.077-2.392.817-4.823-.52-7.188-.327-.578.26-1.616.247-2.44-.05-3.176-.168-6.35-.272-9.526-.11-3.367-.2-6.733-.368-10.1-.046-.919-.441-1.82-.508-2.741-.3-4.214-.493-8.436-.822-12.646-.254-3.236-.655-6.458-1-9.759-2.976-.133-4.149,3.014-6.93,3.361-.487-1.822-.686-3.777-1.518-5.406-1.531-2.989.2-4.848,1.939-6.67,1.419-1.491,3.124-2.708,4.69-4.062a5.562,5.562,0,0,0,.618-.715m5.56-18.586c.393,4.441.786,8.883,1.2,13.611l2.246-1.643c-.874-1.656.528-3.944-1.737-5.113,1.745-2.3.51-4.667.341-7.172-.871.139-1.506.239-2.14.341,1-1.263,1.907-2.61,1.679-4.3-.185-1.4-.216-2.935-1.631-3.575,1.695-1.887.5-3.484.116-5.11-1.866.133-1.47,1.4-1.389,2.323.158,1.793,1.009,3.7.611,5.325-.5,2.032.168,3.59.7,5.314m3.611,37.237c-.275,7.323,1.641,14.534.676,21.823a120.608,120.608,0,0,1,2.19,21.325c.944-.008,1.56-.013,2.167-.017-.079-1.15-.169-2.452-.26-3.752-2.009-.254-.992-1.9-1.5-2.8,2.059-1.448,2.045-1.776.042-2.881.029-.183,0-.414.094-.543,1.14-1.477,1.048-1.406.029-2.849a2.767,2.767,0,0,1-.15-2.111c1.371-.532.822-1.568.77-2.394-.166-2.72-.435-5.433-.645-8.151-.391-5.035-.753-10.073-1.165-15.107-.106-1.31-.516-2.467-2.25-2.542m.976-11.4c-1.495.512-2.425,1.558-2.305,2.483.316,2.444.684,4.88,1.04,7.4l2.053.075c-.254-3.213-.508-6.433-.788-9.954" transform="translate(64.489 14.769)" fill="#fff"/>
        <path id="Path_9" data-name="Path 9" d="M112.955,46.958c.672-.129,1.121-.233,1.574-.3,1.354-.2,2.294.216,2.194,1.758a1.742,1.742,0,0,0,1.441,2.084c4.185.9,6.119,3.941,7.494,7.629,3.623,9.717,2.673,19.418-.154,29.059a51.871,51.871,0,0,1-9.5,18.472,13.291,13.291,0,0,1-7.467,4.561,7.251,7.251,0,0,0-2.513,1.073c-6.165,4.276-11.46,2.839-15.543-3.5a28.8,28.8,0,0,1-4.137-13.413,59.376,59.376,0,0,1,2.617-24.458c2.652-7.692,6.217-14.95,12.184-20.743a15.056,15.056,0,0,1,6.375-4.035c2.334-.666,4.314-.882,5.431,1.81M97.433,88.5a15.113,15.113,0,0,0,1.614,9.53c2.4,4.152,3.775,4.208,6.81.449a44.4,44.4,0,0,0,7.44-14.774,52,52,0,0,0,2.138-14.245A9.462,9.462,0,0,0,112.15,61.8a12.786,12.786,0,0,0-2.436-1.315c-2.23-1.156-2.575-1.092-3.806.872A57.24,57.24,0,0,0,97.433,88.5m-4.582,5.258c.206.035.41.071.614.108a15.294,15.294,0,0,0,1.3-3.178c.293-1.7.763-3.629.248-5.154-.664-1.974.152-3.349.7-4.948.065-.191-.26-.489-.266-.74-.012-.451-.092-1.092.16-1.323,1.088-1.005.6-2.388.967-3.43,1.19-3.345,1.154-7.165,3.64-10.044.2-.231.054-.759.083-1.568-2.35,2.207-3.024,4.807-3.944,7.2-.961,2.5-1.292,5.244-2.282,7.729-.955,2.4-.693,4.913-1.194,7.348-.526,2.56-.06,5.325-.027,8m30.038-31.1c-.029,6.048-.058,11.814-.085,17.58.559-.181.749-.393.786-.628.379-2.352-.223-4.89,1.443-7,.206-.262-.056-1.287-.089-1.285-1.639.031-.9-1.082-1.025-1.88-.221-1.454-.661-2.874-1-4.272,1.273-1.044,1.273-1.044-.031-2.511m.058,19.062-.68-.177-1.173,4.364c1.624-1.09,1.762-2.631,1.853-4.187M121.4,54.412c-.934-2.282-.934-2.282-2.877-1.132l2.877,1.132M94.621,94.128c-1.348,1.76-1.348,1.76.686,3.282-.252-1.206-.453-2.165-.686-3.282m21.712-45.007c-.691-.8-1.05-1.213-1.814-2.1-.039,1.073-.056,1.55-.075,2.026l1.889.069m-3.683,53.4q.4.471.8.944a2.83,2.83,0,0,0,.859-.507,3.325,3.325,0,0,0,.379-.986c-.218-.175-.435-.351-.653-.524q-.69.534-1.383,1.073" transform="translate(79.714 41.408)" fill="#fff"/>
        <path id="Path_10" data-name="Path 10" d="M122.731,37.108c.647.743,1.348,1.175,1.421,1.7.4,2.833.643,5.689.94,8.534-1.945,2.459-.8,5.526-1.554,8.276-.711,2.608-.187,5.553-.21,8.8,1.381-1.015,2.277-1.859,2.423-3.184a99.4,99.4,0,0,0,1.05-11.5c-.025-3.382.813-6.558,1.288-9.821.006-.035.16-.048.345-.094a19.115,19.115,0,0,1,1.169,8.149c-.239,10.187-2.07,20.173-3.374,30.225-.664,5.112-1.807,10.162-2.72,15.244-.844,4.69-1.564,9.4-2.544,14.064a88.579,88.579,0,0,1-2.5,8.9c-.56,1.741-1.29,2.065-3.313,2.2.768-3.132,1.562-6.338,2.338-9.551a14.982,14.982,0,0,1,.333-1.785c.36-.948.859-5.345,1.333-6.4.95-2.117-.693-4.8,1.57-6.527l.1-4.291c-.53-1.028,1.51-1.826.264-2.92,1.283-.8.406-1.949.543-2.951.206-1.5-.406-3.182,1.021-4.536.395-.374,1.292-1.57.146-2.475-.164-.131-.26-.655-.154-.763,1.46-1.466-.674-3.59.759-4.825,1.057-.913.181-1.818.5-2.691.214-.585,1.562-1.277.166-2.04.437-.607.876-1.211,1.31-1.814-2.269-.008-2.406.121-2.662,2.107-.493,3.821-.936,7.652-1.552,11.452-.4,2.465-1.136,4.873-1.6,7.325-.25,1.335-.231,2.718-.36,4.075-.062.647.031,1.448-.312,1.9a4.9,4.9,0,0,0-.743,4.468c.164.688-.412,1.57-.7,2.342s-.971,1.541-.938,2.288c.2,4.6-1.3,8.892-2.205,13.293-.466,2.251-.743,4.568-3.434,5.449-.283.092-.295.861-.553,1.235a16.378,16.378,0,0,1-1.394,1.537,13.077,13.077,0,0,1-.953-2.386c-.541-3.417-1.221-6.7-.3-10.318,1.66-6.51,2.693-13.185,3.856-19.815.959-5.468,1.718-10.972,2.585-16.456.628-3.964,1.3-7.922,1.932-11.883.53-3.33,1.129-6.65,1.512-10,.322-2.789.351-5.616.568-8.418a6.953,6.953,0,0,1,.53-2.409c.53-1.123.6-2.914,2.729-2.311.243.069.74-.749,1.344-1.4" transform="translate(99.284 34.361)" fill="#fff"/>
        <path id="Path_11" data-name="Path 11" d="M115.722,50.363c-1.647-3.773-1.383-7.7-1.26-11.618.067-2.146-.231-4.318-.006-6.441.3-2.785.955-5.53,1.446-8.3A54.629,54.629,0,0,1,119.374,12.6c1-2.4,1.928-5.094,5.56-4.782,1.161.978,2.415,2.067,1.462,4.2-.237.533.5,1.5.819,2.342-3.008,2.44-3.076,6.121-3.875,9.5-.3,1.265-.5,2.556-.815,3.817-1.516,6.125-3.037,12.249-4.609,18.359a11.38,11.38,0,0,1-1.079,2.176c-.339.663-.686,1.321-1.115,2.147" transform="translate(105.904 7.212)" fill="#fff"/>
        <path id="Path_12" data-name="Path 12" d="M125.326,10.677l1.851-.453c.039.046.237.169.248.312a3.051,3.051,0,0,1-.006,1.379c-2.332,5.491-2.9,11.4-4.17,17.141-.74,3.34-2.3,6.5-3.453,9.64l-1.664-.062a27.55,27.55,0,0,1,.942-5,67.89,67.89,0,0,0,2.325-8.881c.206-.909-.077-1.922.065-2.856a8.071,8.071,0,0,1,.842-2.608c.676-1.238,1.46-2.329,1-3.916-.168-.576.316-1.4.622-2.047.507-1.079,1.111-2.111,1.4-2.648" transform="translate(109.389 9.467)" fill="#fff"/>
        <path id="Path_13" data-name="Path 13" d="M261.994,142.028c-1.585.273-3.226.5-4.838.861a2.917,2.917,0,0,0-1.728.874c-1.231,1.874-3.473,1.685-5.089,2.71-.93.589-2.051-.73-3.06.636-.6.817-2.2.926-3.361,1.3s-2.346.664-3.521.99a29.129,29.129,0,0,1-5.088,1.35,66.728,66.728,0,0,1-10.075.27,57.682,57.682,0,0,1-9.67-1.591,29.126,29.126,0,0,1-13.723-7.369c-2.681-2.614-5.15-5.443-7.712-8.18-.189-.2-.524-.456-.5-.645.352-2.411-1.574-4.12-1.911-6.371-.32-2.142-1.525-4.135-2.059-6.265a59.074,59.074,0,0,1-1.217-7.165c-.137-1.115.1-2.238-1-3.066-.243-.185-.212-.894-.129-1.327a18.283,18.283,0,0,0,.013-7.947c-.225-.919.433-2.02.358-3.014-.539-7.093.262-14.118,1.283-21.1a146.107,146.107,0,0,1,3.049-14.624,81.761,81.761,0,0,1,5.842-16.086,5.362,5.362,0,0,0,.491-1.017c1.427-5.884,4.736-10.9,7.558-16.119a67.3,67.3,0,0,1,15.77-19c4.568-3.914,9.549-7.145,15.346-8.783a30.911,30.911,0,0,1,17.827-.071c1.706.532,3.157,1.891,4.707,2.9,1.015.663,1.993,1.383,3,2.063,2.531,1.72,4.023,3.912,3.392,7.145-.449,2.286-.682,4.626-1.3,6.864a12.828,12.828,0,0,1-1.864,3.1c-1.724-.455-.379-3.01-2.812-2.642l-.963,2.034c-3.835.9-5.585-.141-5.637-3.973a4.683,4.683,0,0,0-2.8-4.607,9.9,9.9,0,0,0-9.426-.47A48.991,48.991,0,0,0,216.825,37.1c-2.34,4.6-4.877,9.108-6.92,13.832a130.944,130.944,0,0,0-6.6,20.017,86.64,86.64,0,0,0-2.151,16.074c-.281,4.669-.268,9.358-.252,14.039a68.479,68.479,0,0,0,2.007,15,33.866,33.866,0,0,0,7.18,14.786c3.311,3.892,7.153,6.708,12.569,7.251,3.638.362,7.24,1.219,10.888.593A78.038,78.038,0,0,0,244,136.364c3.578-1.136,7.007-2.754,10.466-4.245,2.827-1.217,3.066-1.678,2.7-4.684a36.755,36.755,0,0,1-.358-9.351c.343-2.664.04-5.4.175-8.1a54.164,54.164,0,0,1,4.788-19.541,63.05,63.05,0,0,1,11-16.278,61.209,61.209,0,0,1,12.654-10.8,24.305,24.305,0,0,1,11.641-3.912c1.3-.079,3.159.289,3.867,1.169,1.724,2.147,4.11,2.511,6.387,3.02a18.526,18.526,0,0,1,6.046,2.824c1.56,1.005,3.207,1.878,4.753,2.9a17.888,17.888,0,0,1,4.441,4.041,29.333,29.333,0,0,1,3.881,6.41c1.834,4.247,1.78,8.775,1.94,13.245.089,2.488-.379,4.99-.41,7.488a42.164,42.164,0,0,1-2.506,12.973,56,56,0,0,1-8.382,15.97,135.647,135.647,0,0,1-11.119,12.76c-2.321,2.369-5.281,4.116-8,6.08a2.075,2.075,0,0,1-1.481.16,2.77,2.77,0,0,0-3.259,1.161,1.978,1.978,0,0,1-1.158.618c-2.729.6-5.454,1.248-8.21,1.708-5.726.955-10.824-.834-15.377-4.118a76.323,76.323,0,0,1-6.479-5.834m61.119-38.915c-1.872.187-.071,2.535-1.687,2.914-.05.012.092.639.064.973-.083.888-.179,1.776-.326,2.654-.164.984-.385,1.959-.582,2.937q-2.034,4.426-4.064,8.848a1.76,1.76,0,0,0,1.574-.4c1.83-2.138,2.159-4.871,2.8-7.465.073-.3-.237-.69-.37-1.038l1.9-.162a7.163,7.163,0,0,1-.576-2.458c.379-2.043.976-4.047,1.489-6.065.549.195,1.21.4,1.173-.483-.019-.443-.512-.865-.792-1.3-.2.349-.4.7-.6,1.042M198.729,67.3c.356-.193.93-.306,1.034-.591.443-1.219.77-2.483,1.1-3.742.366-1.414.406-3,2.28-3.465.166-.04.162-.763.239-1.169-.9.358-1.1-.258-.767-.784.905-1.439.724-3.573,2.831-4.3.472-.164.757-1.021,1.023-1.606a23.547,23.547,0,0,0,1.344-3.382,7.71,7.71,0,0,0,.037-2.119c.539-.393,1.027-.751,1.514-1.107-1.2-1.038.815-1.333.5-2.248-.48-1.408.976-1.841,1.541-2.729.179-.283.412-.686.337-.951-.308-1.084.358-1.753.865-2.544,1.545-2.417,3.033-4.869,4.543-7.307a2.937,2.937,0,0,0-2.217.828,15.774,15.774,0,0,0-2.009,3.057c-2.049,3.973-4.025,7.983-6.042,11.974-.678,1.339-1.45,2.631-2.078,3.991-.664,1.437-.9,3.2-1.891,4.324-1.1,1.25-.664,2.662-1.148,3.943-1.217,3.232-2.047,6.61-3.03,9.93-.129.832-.245,1.666-.387,2.494-.283,1.664-.611,3.32-.861,4.99-.177,1.183.643,1.092,1.651,1.048.514-2.365,1.027-4.734,1.554-7.163-.485.079-.923.152-1.394.227-.195-.547-.383-1.073-.57-1.6m81.209,58.539,0-.008a2.035,2.035,0,0,1-.782,2.683c-1.629,1.375-3.141,2.891-4.657,4.3,2.7,4.33,3.892,5.323,8.076,6.188,2.523.522,5.152.6,7.378-.975a65.376,65.376,0,0,0,7.091-5.568c8.971-8.444,15.518-18.339,17.559-30.737a61.361,61.361,0,0,0,.41-7.255,16.431,16.431,0,0,0-6.847-14.586c-4.844-3.683-10.389-4.486-16.259-4.2a5.478,5.478,0,0,0-3.361,1.167A47.264,47.264,0,0,0,275.838,91.8a48.633,48.633,0,0,0-4.447,10.6,67.692,67.692,0,0,0-1.473,17.1c.019,1.687-.247,3.55,1.362,5.277,7.038-3.906,13.563-8.648,21.038-11.6.039-.015.123.089.3.221l-1.173,1.1c.3.248.493.412.784.653-2.365,1.853-4.516,3.54-6.672,5.223-2.226,1.737-4.567,3.345-6.652,5.239-1.916,1.741-4.58,2.737-5.637,5.429a3.22,3.22,0,0,0,1.645-.69c.969-.747,1.791-1.868,2.877-2.232a3.377,3.377,0,0,0,2.151-2.294m-13.784-22.6c1.375-1.991,2.592-3.717,3.762-5.476a2.323,2.323,0,0,0,.445-1.315c-.166-2.215.975-3.916,2.049-5.67.959-1.568,1.835-3.182,2.887-5.017-3.482,1.092-8.407,10.7-9.143,17.478M324.6,88.53a6.954,6.954,0,0,0-1.418,6.435l1.966-.125c-.193-2.217-.372-4.262-.549-6.31m-.909-10.025c.123-2.675-1-4.047-4.054-5.181l4.054,5.181m-57.778,34.271.62-.112q.526-3.27,1.05-6.545c-.185-.044-.37-.089-.553-.135-.549,1.88-1.132,3.748-1.606,5.645-.081.322.314.761.489,1.146m-3.494-92.49c-.229-1.77.663-3.084-.422-4.628-.661,1.47-1.194,2.652-1.812,4.025l2.234.6M198.359,81l-.6-.235c-1.672,1.529-.4,3.446-.04,5.248q.321-2.508.639-5.013M262.321,7.788c-.961,2.446-.337,2.3,2.288,3.228-1.069-.838-.324-2.951-2.288-3.228M280.97,121.645l-5.077,3.6c2.421-.144,3.723-1.911,5.077-3.6m17.137,22.42c2.86-.455,2.86-.455,3.675-2.373-2.182-.655-2.321,1.824-3.675,2.373M265.628,119.6l.684.052q.116-2.308.229-4.617c-1.793,1.423-.609,3.047-.913,4.565m13-38.99c-2.706,1.841-2.81,2.026-2.151,3.5a4.523,4.523,0,0,0,2.151-3.5M323,99.19l.181.044c.166-.707.331-1.412.532-2.269l1.106,1.35V96.182L323,96.274ZM197.238,87.965c-.073.04-.146.079-.218.119q-.205,2.037-.408,4.072l.626.033Zm-.042,8.419c-.526.98-1.211,1.961,0,3.27ZM219.154,25.34c1.04-.064,1.758-.3,1.9-1.479-1.082-.015-2.1-.154-1.9,1.479M198.461,79.824c.119-.886.214-1.574.356-2.625-.811.422-1.574.564-1.749.965-.366.83.148,1.4,1.393,1.66m80.587-.489c1.394.356,1.706-.508,1.876-1.531l-1.876,1.531M223.069,20.7c-.166-.069-.333-.139-.5-.206q-.243.581-.481,1.165a3.3,3.3,0,0,0,.483.168c.187-.364.339-.747.5-1.127" transform="translate(173.4 0)" fill="#fff"/>
      </g>
    </g>
  </g>
</svg>
